<svg xmlns="http://www.w3.org/2000/svg" viewBox="0 0 720 405" width="720" height="405">
  <style>
    .accent-box { fill: #e0e7ff; stroke: #4338ca; stroke-width: 3; shape-rendering: crispEdges; mix-blend-mode: multiply; }
    .soft-line { fill: none; stroke: #be123c; stroke-width: 4; }
    .ghosted { fill: #f0abfc; stroke: #86198f; stroke-width: 3; opacity: .55; }
    text.label { fill: #0f172a; font-size: 18; font-variant: all-small-caps; letter-spacing: 1.5px; word-spacing: 3px; text-rendering: geometricPrecision; }
  </style>
  <defs>
    <linearGradient id="panel-gradient" spreadMethod="reflect" gradientUnits="userSpaceOnUse" gradientTransform="rotate(12)">
      <stop offset="0%" stop-color="rgb(224,242,254)" stop-opacity=".9"/>
      <stop offset="100%" stop-color="rgba(186,230,253,.55)"/>
    </linearGradient>
    <g id="reused-mark">
      <polygon points="0,16 18,0 36,16 18,32" class="ghosted"/>
      <circle cx="18" cy="16" r="7" fill="#ffffff" fill-opacity=".7" stroke="#86198f" stroke-opacity=".65"/>
    </g>
  </defs>
  <rect x="36" y="32" width="648" height="340" fill="#f8fafc" stroke="#334155" stroke-width="2"/>
  <rect x="72" y="76" width="180" height="96" rx="14" ry="14" style="fill:#dbeafe;stroke:#1d4ed8;stroke-width:4"/>
  <circle cx="390" cy="124" r="62" fill="#dcfce7" stroke="#15803d" stroke-width="4"/>
  <ellipse cx="570" cy="124" rx="78" ry="46" fill="#fef3c7" stroke="#b45309" stroke-width="4"/>
  <line x1="104" y1="238" x2="610" y2="222" stroke="#dc2626" stroke-width="6"/>
  <line x1="610" y1="282" x2="104" y2="302" stroke="#7c3aed" stroke-width="5"/>
  <path d="M460 320 L520 280 L600 320 L560 352 Z" fill="#e0f2fe" stroke="#0369a1" stroke-width="3"/>

  <!-- Deliberately included to document the current unsupported surface. -->
  <path d="M110 340 C180 270, 260 390, 340 318 S500 290, 610 338" fill="none" stroke="#0891b2" stroke-width="4" stroke-linecap="round" stroke-linejoin="round"/>
  <polygon points="316,74 344,104 332,144 292,144 280,104" fill="#fee2e2" stroke="#991b1b" stroke-width="3"/>
  <g transform="translate(34 18) rotate(-8 620 278)" isolation="isolate">
    <rect class="accent-box" x="596" y="246" width="76" height="46" fill="url(#panel-gradient)"/>
    <path class="soft-line" d="M590 320 L632 306 L676 324" stroke-dasharray="8 4" stroke-dashoffset="2" stroke-linecap="round" stroke-linejoin="round"/>
  </g>
  <use href="#reused-mark" x="640" y="70"/>
  <use href="#reused-mark" x="650" y="128" transform="scale(.82)"/>
  <text class="label" x="170" y="58" text-anchor="middle" font-weight="700">
    <tspan>Text</tspan>
    <tspan x="170" dy="20" rotate="0 8">converts</tspan>
  </text>
</svg>
